<svg width="36" height="36" viewBox="0 0 36 36" fill="none" xmlns="http://www.w3.org/2000/svg">
<g clip-path="url(#clip0_55_115)">
<circle cx="18" cy="18" r="18" fill="#8C9DA5"/>
<path d="M9.57404 17.7906C9.57404 16.4085 9.67276 14.9277 9.57404 13.5457C9.47532 12.6572 9.8702 12.2623 10.7587 12.1636C12.2395 11.9661 13.7203 11.9661 15.2011 12.0648C17.5704 12.361 18.6563 14.3354 17.7679 16.5073C17.4717 17.0996 17.373 17.3958 17.8666 17.9881C19.5448 19.9625 18.6563 22.7267 16.1883 23.4177C14.3126 23.9113 12.2395 23.5164 10.3638 23.6152C9.67276 23.6152 9.57404 23.0228 9.57404 22.4305C9.47532 20.9497 9.47532 19.3702 9.57404 17.7906ZM13.7203 19.3702C13.5229 19.3702 13.2267 19.3702 12.9306 19.3702C12.2395 19.3702 11.7459 19.5676 11.8446 20.4561C11.9433 21.1471 12.1408 21.6408 12.9306 21.6408C13.6216 21.6408 14.3126 21.6407 15.0037 21.542C15.6947 21.4433 16.287 21.2459 16.0896 20.3574C15.9909 19.6663 15.4973 19.2714 14.8062 19.2714C14.5101 19.2714 14.2139 19.2714 13.7203 19.3702ZM13.6216 16.606C14.0165 16.5073 14.4114 16.5073 14.8062 16.4085C15.2998 16.3098 15.596 15.9149 15.596 15.4213C15.596 14.829 15.1024 14.6316 14.6088 14.6316C13.9178 14.6316 13.2267 14.6316 12.5357 14.7303C12.0421 14.7303 11.8446 15.0265 11.8446 15.5201C11.8446 15.9149 11.8446 16.3098 12.3382 16.5073C12.7331 16.5073 13.2267 16.5073 13.6216 16.606Z" fill="white"/>
<path d="M26.949 21.2454C26.0605 23.516 24.481 24.5032 22.5065 24.207C20.7296 23.9108 19.5449 22.3313 19.5449 20.2582C19.5449 18.2838 19.6436 16.4081 21.7168 15.4209C24.0861 14.2362 27.1464 15.8158 27.4426 18.4812C27.5413 19.4684 26.949 20.2582 25.863 20.3569C24.7771 20.4556 23.6912 20.4556 22.6053 20.4556C22.3091 20.4556 22.0129 20.6531 22.0129 21.048C22.0129 21.2454 22.2104 21.5416 22.3091 21.6403C23.0989 22.2326 23.9873 22.43 24.6784 21.739C25.3694 20.9492 26.0605 20.9492 26.949 21.2454ZM23.5925 18.7774C24.0861 18.7774 24.5797 18.8761 24.6784 18.1851C24.6784 17.5928 24.2835 17.1979 23.6912 17.1979C23.0989 17.1979 22.6053 17.494 22.5065 18.0863C22.3091 18.8761 23.1976 18.5799 23.5925 18.7774Z" fill="white"/>
<path d="M23.2962 14.3351C22.8026 14.3351 22.4077 14.3351 21.9141 14.3351C21.4205 14.3351 21.0256 14.1376 21.0256 13.4466C21.0256 12.8543 21.3218 12.5581 21.9141 12.5581C22.9013 12.5581 23.8885 12.5581 24.9745 12.5581C25.4681 12.5581 25.6655 12.8543 25.6655 13.2492C25.6655 13.7428 25.5668 14.1376 24.8757 14.2364C24.3821 14.3351 23.8885 14.2363 23.2962 14.3351C23.2962 14.2363 23.2962 14.2363 23.2962 14.3351Z" fill="white"/>
</g>
<defs>
<clipPath id="clip0_55_115">
<rect width="36" height="36" fill="white"/>
</clipPath>
</defs>
</svg>
